<?xml version="1.0" encoding="utf-8"?>
<!-- Generator: Adobe Illustrator 24.0.1, SVG Export Plug-In . SVG Version: 6.00 Build 0)  -->
<svg version="1.1" id="Layer_1" xmlns="http://www.w3.org/2000/svg" xmlns:xlink="http://www.w3.org/1999/xlink" x="0px" y="0px"
	 viewBox="0 0 22.5 24.6" style="enable-background:new 0 0 22.5 24.6;" xml:space="preserve">
<style type="text/css">
	.st0{fill:#4050A2;}
</style>
<g>
	<path class="st0" d="M22.5,19.3C22.5,19.3,22.4,19.3,22.5,19.3C22.4,19.3,22.5,19.3,22.5,19.3C22.5,19.3,22.5,19.3,22.5,19.3z"/>
	<path class="st0" d="M3.8,7.1c0-1.5,0.5-2.9,1.3-4v0c0.2-0.3,0.4-0.5,0.6-0.7c1.3-1.4,3.1-2.3,5.2-2.3c0.7,0,1.3,0.1,1.9,0.3
		c2.9,0.8,5.1,3.5,5.1,6.7c0,0.1,0,0.2,0,0.3c-0.1,2-0.9,3.7-2.3,4.9c0.2-0.7,0.3-1.4,0.3-2.2c0-0.5-0.1-1-0.2-1.5
		c-0.9,0.3-1.8,0.5-2.8,0.5c-2.3,0-4.4-1-5.9-2.5C6.9,7,6.8,7.5,6.8,8.1c0,2.3,1,4.4,2.5,5.8C6.2,13.2,3.8,10.4,3.8,7.1z"/>
	<path class="st0" d="M22.3,18.9C22.3,18.9,22.2,18.9,22.3,18.9c-0.9,2.3-2.5,4.3-4.5,5.7h-13c-2.1-1.4-3.6-3.3-4.5-5.7c0,0,0,0,0,0
		c1.8-1.6,3.9-2.8,6.2-3.4c1.2,1.8,2.9,3.2,4.9,4.1h0c2-0.9,3.6-2.3,4.8-4.1C18.4,16.1,20.5,17.3,22.3,18.9z"/>
	<path class="st0" d="M0,19.3C0,19.3,0,19.3,0,19.3C0,19.3,0,19.3,0,19.3C0,19.3,0,19.3,0,19.3z"/>
</g>
</svg>
